<svg width="36" height="36" viewBox="0 0 36 36" fill="none" xmlns="http://www.w3.org/2000/svg">
<g clip-path="url(#clip0)">
<path d="M17.5229 10.4245L5.99983 21.1015V32.625C5.99983 32.9234 6.10519 33.2095 6.29272 33.4205C6.48026 33.6315 6.73461 33.75 6.99983 33.75L14.0036 33.7296C14.2679 33.7281 14.521 33.6089 14.7074 33.3981C14.8939 33.1873 14.9986 32.902 14.9986 32.6046V25.875C14.9986 25.5766 15.1039 25.2905 15.2915 25.0795C15.479 24.8685 15.7333 24.75 15.9986 24.75H19.9986C20.2638 24.75 20.5181 24.8685 20.7057 25.0795C20.8932 25.2905 20.9986 25.5766 20.9986 25.875V32.5997C20.9981 32.7477 21.0237 32.8944 21.0738 33.0313C21.1238 33.1682 21.1974 33.2926 21.2903 33.3975C21.3832 33.5023 21.4936 33.5855 21.6151 33.6422C21.7367 33.699 21.867 33.7282 21.9986 33.7282L28.9998 33.75C29.265 33.75 29.5194 33.6315 29.7069 33.4205C29.8944 33.2095 29.9998 32.9234 29.9998 32.625V21.0938L18.4792 10.4245C18.3437 10.3017 18.175 10.2347 18.0011 10.2347C17.8271 10.2347 17.6584 10.3017 17.5229 10.4245V10.4245ZM35.7248 17.6815L30.4998 12.8362V3.09726C30.4998 2.87348 30.4208 2.65887 30.2801 2.50064C30.1395 2.3424 29.9487 2.25351 29.7498 2.25351H26.2498C26.0509 2.25351 25.8601 2.3424 25.7195 2.50064C25.5788 2.65887 25.4998 2.87348 25.4998 3.09726V8.20265L19.9042 3.02343C19.3672 2.52631 18.6934 2.2545 17.9979 2.2545C17.3025 2.2545 16.6287 2.52631 16.0917 3.02343L0.271088 17.6815C0.195142 17.7521 0.13231 17.8389 0.0861799 17.9368C0.04005 18.0348 0.0115268 18.142 0.00224021 18.2523C-0.00704641 18.3627 0.00308552 18.474 0.0320571 18.5799C0.0610286 18.6859 0.108272 18.7844 0.171088 18.8698L1.76484 21.0495C1.82748 21.1351 1.90453 21.2061 1.99158 21.2583C2.07863 21.3104 2.17397 21.3427 2.27214 21.3534C2.37031 21.364 2.46938 21.3528 2.56368 21.3203C2.65799 21.2878 2.74567 21.2347 2.82171 21.1641L17.5229 7.54171C17.6584 7.4189 17.8271 7.35192 18.0011 7.35192C18.175 7.35192 18.3437 7.4189 18.4792 7.54171L33.181 21.1641C33.2569 21.2347 33.3445 21.2879 33.4387 21.3205C33.5328 21.3531 33.6318 21.3645 33.7299 21.354C33.828 21.3436 33.9233 21.3115 34.0103 21.2596C34.0974 21.2077 34.1745 21.137 34.2373 21.0516L35.831 18.8719C35.8938 18.786 35.9408 18.687 35.9695 18.5806C35.9981 18.4742 36.0077 18.3625 35.9979 18.2518C35.988 18.1412 35.9588 18.0339 35.9119 17.936C35.8651 17.8381 35.8015 17.7516 35.7248 17.6815V17.6815Z" fill="#7DC0A7"/>
</g>
<defs>
<clipPath id="clip0">
<rect width="36" height="36" fill="white"/>
</clipPath>
</defs>
</svg>
