<?xml version="1.0" encoding="UTF-8" standalone="no"?>
<svg
   xmlns:dc="http://purl.org/dc/elements/1.1/"
   xmlns:cc="http://creativecommons.org/ns#"
   xmlns:rdf="http://www.w3.org/1999/02/22-rdf-syntax-ns#"
   xmlns:svg="http://www.w3.org/2000/svg"
   xmlns="http://www.w3.org/2000/svg"
   xmlns:sodipodi="http://sodipodi.sourceforge.net/DTD/sodipodi-0.dtd"
   xmlns:inkscape="http://www.inkscape.org/namespaces/inkscape"
   aria-hidden="true"
   focusable="false"
   data-prefix="fas"
   data-icon="user-friends"
   class="svg-inline--fa fa-user-friends fa-w-20"
   role="img"
   viewBox="0 0 640 512"
   version="1.1"
   id="svg22"
   sodipodi:docname="user-friends-solid.svg"
   inkscape:version="1.0.1 (3bc2e813f5, 2020-09-07)">
  <metadata
     id="metadata28">
    <rdf:RDF>
      <cc:Work
         rdf:about="">
        <dc:format>image/svg+xml</dc:format>
        <dc:type
           rdf:resource="http://purl.org/dc/dcmitype/StillImage" />
      </cc:Work>
    </rdf:RDF>
  </metadata>
  <defs
     id="defs26" />
  <sodipodi:namedview
     pagecolor="#ffffff"
     bordercolor="#666666"
     borderopacity="1"
     objecttolerance="10"
     gridtolerance="10"
     guidetolerance="10"
     inkscape:pageopacity="0"
     inkscape:pageshadow="2"
     inkscape:window-width="1920"
     inkscape:window-height="1001"
     id="namedview24"
     showgrid="false"
     inkscape:zoom="1.1462864"
     inkscape:cx="466.34614"
     inkscape:cy="310.56994"
     inkscape:window-x="-9"
     inkscape:window-y="-9"
     inkscape:window-maximized="1"
     inkscape:current-layer="svg22" />
  <path
     fill="currentColor"
     d="M 192,288 C 253.9,288 304,237.9 304,176 304,114.1 253.9,64 192,64 130.1,64 80,114.1 80,176 c 0,61.9 50.1,112 112,112 z m 76.8,32 h -8.3 c -20.8,10 -43.9,16 -68.5,16 -24.6,0 -47.6,-6 -68.5,-16 h -8.3 C 51.6,320 0,371.6 0,435.2 V 464 c 0,26.5 21.5,48 48,48 h 288 c 26.5,0 48,-21.5 48,-48 V 435.2 C 384,371.6 332.4,320 268.8,320 Z M 480,288 c 53,0 96,-43 96,-96 0,-53 -43,-96 -96,-96 -53,0 -96,43 -96,96 0,53 43,96 96,96 z m 48,32 h -3.8 c -13.9,4.8 -28.6,8 -44.2,8 -15.6,0 -30.3,-3.2 -44.2,-8 H 432 c -20.4,0 -39.2,5.9 -55.7,15.4 24.4,26.3 39.7,61.2 39.7,99.8 v 38.4 c 0,2.2 -0.5,4.3 -0.6,6.4 H 592 c 26.5,0 48,-21.5 48,-48 0,-61.9 -50.1,-112 -112,-112 z"
     id="path20" />
</svg>
