<svg width="14" height="14" viewBox="0 0 14 14" fill="none" xmlns="http://www.w3.org/2000/svg">
<path d="M7.06298 3.85549C5.19239 3.85549 3.68357 5.25823 3.68357 6.99729C3.68357 8.73635 5.19239 10.1391 7.06298 10.1391C8.93356 10.1391 10.4424 8.73635 10.4424 6.99729C10.4424 5.25823 8.93356 3.85549 7.06298 3.85549ZM7.06298 9.03987C5.85416 9.03987 4.86592 8.12385 4.86592 6.99729C4.86592 5.87073 5.85121 4.95471 7.06298 4.95471C8.27474 4.95471 9.26003 5.87073 9.26003 6.99729C9.26003 8.12385 8.2718 9.03987 7.06298 9.03987ZM11.3689 3.72698C11.3689 4.1344 11.0159 4.45979 10.5806 4.45979C10.1424 4.45979 9.79239 4.13167 9.79239 3.72698C9.79239 3.32229 10.1453 2.99417 10.5806 2.99417C11.0159 2.99417 11.3689 3.32229 11.3689 3.72698ZM13.6071 4.47073C13.5571 3.48909 13.3159 2.61956 12.5424 1.90315C11.7718 1.18674 10.8365 0.962524 9.78062 0.913306C8.69239 0.855884 5.43063 0.855884 4.34239 0.913306C3.28945 0.95979 2.35416 1.18401 1.58063 1.90042C0.807104 2.61682 0.568869 3.48635 0.515928 4.46799C0.454163 5.47971 0.454163 8.51213 0.515928 9.52385C0.565928 10.5055 0.807104 11.375 1.58063 12.0914C2.35416 12.8078 3.28651 13.0321 4.34239 13.0813C5.43063 13.1387 8.69239 13.1387 9.78062 13.0813C10.8365 13.0348 11.7718 12.8106 12.5424 12.0914C13.313 11.375 13.5541 10.5055 13.6071 9.52385C13.6689 8.51213 13.6689 5.48245 13.6071 4.47073ZM12.2012 10.6094C11.9718 11.1453 11.5277 11.5582 10.9483 11.7742C10.0806 12.0942 8.0218 12.0203 7.06298 12.0203C6.10416 12.0203 4.04239 12.0914 3.17769 11.7742C2.60122 11.561 2.1571 11.1481 1.92475 10.6094C1.58063 9.80276 1.66004 7.8887 1.66004 6.99729C1.66004 6.10588 1.58357 4.18909 1.92475 3.38518C2.15416 2.84924 2.59828 2.43635 3.17769 2.22034C4.04533 1.90042 6.10416 1.97424 7.06298 1.97424C8.0218 1.97424 10.0836 1.90315 10.9483 2.22034C11.5247 2.43362 11.9689 2.84651 12.2012 3.38518C12.5453 4.19182 12.4659 6.10588 12.4659 6.99729C12.4659 7.8887 12.5453 9.80549 12.2012 10.6094Z" fill="#7DC0A7"/>
</svg>
