<svg width="29" height="25" viewBox="0 0 29 25" fill="none" xmlns="http://www.w3.org/2000/svg">
<path d="M26.2812 0H19.0312C17.5303 0 16.3125 1.19978 16.3125 2.67857V9.82143C16.3125 11.3002 17.5303 12.5 19.0312 12.5H23.5625V16.0714C23.5625 18.0413 21.9369 19.6429 19.9375 19.6429H19.4844C18.7311 19.6429 18.125 20.24 18.125 20.9821V23.6607C18.125 24.4029 18.7311 25 19.4844 25H19.9375C24.9445 25 29 21.0045 29 16.0714V2.67857C29 1.19978 27.7822 0 26.2812 0ZM9.96875 0H2.71875C1.21777 0 0 1.19978 0 2.67857V9.82143C0 11.3002 1.21777 12.5 2.71875 12.5H7.25V16.0714C7.25 18.0413 5.62441 19.6429 3.625 19.6429H3.17188C2.41855 19.6429 1.8125 20.24 1.8125 20.9821V23.6607C1.8125 24.4029 2.41855 25 3.17188 25H3.625C8.63203 25 12.6875 21.0045 12.6875 16.0714V2.67857C12.6875 1.19978 11.4697 0 9.96875 0Z" fill="#FFC108"/>
</svg>
