<svg width="14" height="12" viewBox="0 0 14 12" fill="none" xmlns="http://www.w3.org/2000/svg">
<path d="M12.5608 3.14844C12.5697 3.2728 12.5697 3.39719 12.5697 3.52154C12.5697 7.31467 9.68269 11.6852 4.40603 11.6852C2.78039 11.6852 1.27025 11.2144 -6.10352e-05 10.3972C0.230912 10.4238 0.45297 10.4327 0.69283 10.4327C2.03418 10.4327 3.26897 9.97967 4.25501 9.20683C2.99359 9.18017 1.93648 8.35403 1.57226 7.21697C1.74994 7.2436 1.92759 7.26138 2.11416 7.26138C2.37176 7.26138 2.6294 7.22583 2.86923 7.16368C1.55451 6.89716 0.568443 5.74235 0.568443 4.34768V4.31216C0.950408 4.52536 1.39461 4.65861 1.86538 4.67635C1.09254 4.16111 0.586216 3.28169 0.586216 2.28676C0.586216 1.75377 0.728322 1.26519 0.977068 0.838795C2.38951 2.57991 4.51261 3.71694 6.8933 3.84133C6.84889 3.62813 6.82223 3.40607 6.82223 3.18399C6.82223 1.60275 8.10143 0.314697 9.69152 0.314697C10.5177 0.314697 11.2638 0.661143 11.788 1.22079C12.4364 1.09643 13.0582 0.856568 13.609 0.527897C13.3958 1.19415 12.9428 1.7538 12.3476 2.1091C12.925 2.04695 13.4847 1.88702 13.9999 1.66496C13.6091 2.23346 13.1205 2.73979 12.5608 3.14844Z" fill="#7DC0A7"/>
</svg>
