<svg width="34" height="36" viewBox="0 0 34 36" fill="none" xmlns="http://www.w3.org/2000/svg">
<g clip-path="url(#clip0)">
<path d="M32.8445 11.5675C32.5326 11.2945 25.4254 5.24292 23.863 3.92759C22.3952 2.6853 19.8854 0 17.0009 0C14.1319 0 11.6462 2.65198 10.1389 3.92759C8.51436 5.29516 1.43499 11.3241 1.16405 11.5599C0.800386 11.8766 0.507477 12.2746 0.306372 12.7253C0.105266 13.1761 0.000959399 13.6684 0.000946045 14.1669L0.000946045 32.625C0.000946045 34.489 1.42802 36 3.18845 36H30.8134C32.5739 36 34.0009 34.489 34.0009 32.625V14.1686C34.0009 13.6716 33.8973 13.1808 33.6974 12.7312C33.4975 12.2815 33.2063 11.8842 32.8445 11.5675ZM30.8134 32.2031C30.8134 32.315 30.7715 32.4223 30.6967 32.5014C30.622 32.5806 30.5207 32.625 30.415 32.625H3.58688C3.48121 32.625 3.37987 32.5806 3.30515 32.5014C3.23042 32.4223 3.18845 32.315 3.18845 32.2031V14.3681C3.18845 14.2407 3.24263 14.1202 3.33627 14.0401C4.39013 13.1392 10.5608 7.884 12.1261 6.56641C13.3323 5.54625 15.4336 3.375 17.0009 3.375C18.5743 3.375 20.7102 5.58063 21.8758 6.56641C23.4412 7.88414 29.6124 13.1401 30.6658 14.0418C30.7119 14.0813 30.7491 14.1312 30.7747 14.188C30.8003 14.2447 30.8135 14.3068 30.8134 14.3696V32.2031ZM28.689 19.0052C28.9712 19.3679 28.9191 19.9048 28.5732 20.1992C26.649 21.8363 24.637 23.5458 23.863 24.1973C22.3557 25.473 19.87 28.125 17.0009 28.125C14.1155 28.125 11.603 25.4365 10.1389 24.1973C9.38986 23.5669 7.36679 21.848 5.42886 20.199C5.08288 19.9046 5.03089 19.3678 5.31298 19.005L6.32621 17.7023C6.60365 17.3456 7.10031 17.2915 7.44044 17.5809C9.34085 19.1982 11.3296 20.8881 12.1261 21.5586C13.2917 22.5444 15.4276 24.75 17.0009 24.75C18.5683 24.75 20.6696 22.5787 21.8758 21.5586C22.6723 20.8882 24.6612 19.1982 26.5617 17.5811C26.9018 17.2917 27.3984 17.3459 27.6758 17.7026L28.689 19.0052Z" fill="#7DC0A7"/>
</g>
<defs>
<clipPath id="clip0">
<rect width="34" height="36" fill="white" transform="translate(0.000946045)"/>
</clipPath>
</defs>
</svg>
