<svg width="35" height="30" viewBox="0 0 35 30" fill="none" xmlns="http://www.w3.org/2000/svg">
<g clip-path="url(#clip0)">
<path d="M26.6873 11.251H18.3748V14.5323C18.3748 16.8585 16.6083 18.751 14.4373 18.751C12.2662 18.751 10.4998 16.8585 10.4998 14.5323V7.40729L6.95053 9.69244C5.89506 10.3663 5.24975 11.5909 5.24975 12.9034V15.6749L0.874752 18.3819C0.0380332 18.8975 -0.251811 20.046 0.234908 20.9424L4.60991 29.0635C5.09116 29.96 6.16303 30.2647 6.99975 29.7491L12.6544 26.251H20.1248C22.0552 26.251 23.6248 24.5694 23.6248 22.501H24.4998C25.4677 22.501 26.2498 21.6631 26.2498 20.626V16.876H26.6873C27.4146 16.876 27.9998 16.2491 27.9998 15.4698V12.6573C27.9998 11.878 27.4146 11.251 26.6873 11.251ZM34.7646 9.05963L30.3896 0.938537C29.9083 0.0420522 28.8365 -0.262635 27.9998 0.25299L22.3451 3.75104H16.756C16.0998 3.75104 15.4599 3.95026 14.9021 4.3194L13.0701 5.54401C12.556 5.88385 12.2498 6.48736 12.2498 7.1319V14.5323C12.2498 15.8272 13.2287 16.876 14.4373 16.876C15.6458 16.876 16.6248 15.8272 16.6248 14.5323V9.37604H26.6873C28.3771 9.37604 29.7498 10.8467 29.7498 12.6573V14.3272L34.1248 11.6202C34.9615 11.0987 35.2458 9.95611 34.7646 9.05963Z" fill="#7DC0A7"/>
</g>
<defs>
<clipPath id="clip0">
<rect width="35" height="30" fill="white" transform="translate(0.000946045)"/>
</clipPath>
</defs>
</svg>
