<svg width="35" height="28" viewBox="0 0 35 28" fill="none" xmlns="http://www.w3.org/2000/svg">
<g clip-path="url(#clip0)">
<path d="M10.5009 14C13.8861 14 16.6259 11.2602 16.6259 7.875C16.6259 4.48984 13.8861 1.75 10.5009 1.75C7.11579 1.75 4.37595 4.48984 4.37595 7.875C4.37595 11.2602 7.11579 14 10.5009 14ZM14.7009 15.75H14.247C13.1095 16.2969 11.8463 16.625 10.5009 16.625C9.15563 16.625 7.89782 16.2969 6.75485 15.75H6.30095C2.82282 15.75 0.000946045 18.5719 0.000946045 22.05V23.625C0.000946045 25.0742 1.17673 26.25 2.62595 26.25H18.3759C19.8252 26.25 21.0009 25.0742 21.0009 23.625V22.05C21.0009 18.5719 18.1791 15.75 14.7009 15.75ZM26.2509 14C29.1494 14 31.5009 11.6484 31.5009 8.75C31.5009 5.85156 29.1494 3.5 26.2509 3.5C23.3525 3.5 21.0009 5.85156 21.0009 8.75C21.0009 11.6484 23.3525 14 26.2509 14ZM28.8759 15.75H28.6681C27.908 16.0125 27.1041 16.1875 26.2509 16.1875C25.3978 16.1875 24.5939 16.0125 23.8338 15.75H23.6259C22.5103 15.75 21.4822 16.0727 20.5799 16.5922C21.9142 18.0305 22.7509 19.9391 22.7509 22.05V24.15C22.7509 24.2703 22.7236 24.3852 22.7181 24.5H32.3759C33.8252 24.5 35.0009 23.3242 35.0009 21.875C35.0009 18.4898 32.2611 15.75 28.8759 15.75Z" fill="#7DC0A7"/>
</g>
<defs>
<clipPath id="clip0">
<rect width="35" height="28" fill="white" transform="translate(0.000946045)"/>
</clipPath>
</defs>
</svg>
