<svg width="35" height="29" viewBox="0 0 35 29" fill="none" xmlns="http://www.w3.org/2000/svg">
<g clip-path="url(#clip0)">
<path d="M34.9677 24.5583C34.5083 23.4028 33.2286 22.8534 32.113 23.3349L30.9044 23.856L28.788 18.0843C31.4075 16.1019 32.3317 12.4032 30.6747 9.42959L25.9387 0.905179C25.5012 0.117874 24.5661 -0.210642 23.7512 0.134866L17.5005 2.81963L11.2497 0.134866C10.4348 -0.216306 9.49968 0.117874 9.06218 0.905179L4.32625 9.42959C2.67468 12.4032 3.59343 16.1019 6.21297 18.0786L4.09656 23.8503L2.88797 23.3292C1.77234 22.8478 0.498122 23.3972 0.0332783 24.5526C-0.0596904 24.7849 0.0442158 25.0511 0.268435 25.1474L9.14421 28.9649C9.36843 29.0612 9.62 28.9536 9.71297 28.7214C10.1723 27.5659 9.64734 26.2405 8.53171 25.7591L7.32312 25.238L9.47781 19.37C9.71843 19.3983 9.95906 19.4437 10.1942 19.4437C13.0216 19.4437 15.6302 17.5689 16.3958 14.6122L17.5005 10.3415L18.6052 14.6122C19.3708 17.5689 21.9794 19.4437 24.8067 19.4437C25.0419 19.4437 25.2825 19.3983 25.5231 19.37L27.6723 25.238L26.4637 25.7591C25.3481 26.2405 24.8176 27.5659 25.2825 28.7214C25.3755 28.9536 25.6325 29.0612 25.8512 28.9649L34.7325 25.1474C34.9512 25.0511 35.0606 24.7905 34.9677 24.5583ZM15.0887 9.18038L8.95828 6.54659L10.9544 2.95557L16.1223 5.17588L15.0887 9.18038ZM19.9122 9.18038L18.8786 5.17588L24.0466 2.95557L26.0427 6.54659L19.9122 9.18038Z" fill="#7DC0A7"/>
</g>
<defs>
<clipPath id="clip0">
<rect width="35" height="29" fill="white" transform="translate(0.000946045)"/>
</clipPath>
</defs>
</svg>
