<svg width="25" height="36" viewBox="0 0 25 36" fill="none" xmlns="http://www.w3.org/2000/svg">
<g clip-path="url(#clip0)">
<path d="M11.2163 35.2737C1.75681 20.4631 0.000946045 18.9431 0.000946045 13.5C0.000946045 6.04413 5.59736 0 12.5009 0C19.4045 0 25.0009 6.04413 25.0009 13.5C25.0009 18.9431 23.2451 20.4631 13.7856 35.2737C13.1648 36.2422 11.837 36.2421 11.2163 35.2737ZM12.5009 19.125C15.3774 19.125 17.7093 16.6066 17.7093 13.5C17.7093 10.3934 15.3774 7.875 12.5009 7.875C9.62445 7.875 7.29261 10.3934 7.29261 13.5C7.29261 16.6066 9.62445 19.125 12.5009 19.125Z" fill="#7DC0A7"/>
</g>
<defs>
<clipPath id="clip0">
<rect width="25" height="36" fill="white" transform="translate(0.000946045)"/>
</clipPath>
</defs>
</svg>
